<?xml version="1.0" encoding="UTF-8"?>
<!DOCTYPE svg PUBLIC "-//W3C//DTD SVG 1.1//EN" "http://www.w3.org/Graphics/SVG/1.1/DTD/svg11.dtd">
<!-- Creator: CorelDRAW -->
<svg xmlns="http://www.w3.org/2000/svg" xml:space="preserve" width="451.443mm" height="451.443mm" version="1.1" style="shape-rendering:geometricPrecision; text-rendering:geometricPrecision; image-rendering:optimizeQuality; fill-rule:evenodd; clip-rule:evenodd"
viewBox="0 0 7088.44 7088.44"
 xmlns:xlink="http://www.w3.org/1999/xlink"
 xmlns:xodm="http://www.corel.com/coreldraw/odm/2003">
 <defs>
  <style type="text/css">
   <![CDATA[
    .fil0 {fill:#00768E}
    .fil1 {fill:#00768E}
   ]]>
  </style>
 </defs>
 <g id="Camada_x0020_1">
  <metadata id="CorelCorpID_0Corel-Layer"/>
  <path class="fil0" d="M3544.22 0c1957.42,0 3544.22,1586.8 3544.22,3544.22 0,1957.42 -1586.8,3544.22 -3544.22,3544.22 -1957.42,0 -3544.22,-1586.8 -3544.22,-3544.22 0,-1957.42 1586.8,-3544.22 3544.22,-3544.22zm0 295.13c1794.42,0 3249.09,1454.67 3249.09,3249.09 0,1794.42 -1454.67,3249.09 -3249.09,3249.09 -1794.42,0 -3249.09,-1454.67 -3249.09,-3249.09 0,-1794.42 1454.67,-3249.09 3249.09,-3249.09z"/>
  <g id="_1889044827360">
   <path class="fil1" d="M4384.71 1929.26l-1680.98 0 840.49 1455.77 840.49 -1455.77 0 0zm-1216.47 2541.17l-1592.49 -2758.26c-166.7,-288.75 42.56,-651.22 376,-651.22l3184.94 0c333.42,0 542.7,362.47 376,651.22l-1592.49 2758.26c-166.45,288.28 -585.51,288.28 -751.96,0z"/>
   <circle class="fil1" cx="3544.22" cy="5506.37" r="521.13"/>
  </g>
 </g>
</svg>
